<svg xmlns="http://www.w3.org/2000/svg" width="27" height="22" viewBox="0 0 27 22" fill="none"><script xmlns=""/>
    <path d="M20.0277 10.9995C20.0254 9.58688 19.2729 8.28183 18.0516 7.5721L16.9825 6.9507L13.3235 9.06193L16.2105 10.7409C16.3027 10.7941 16.3588 10.893 16.3572 10.9995C16.3542 11.1006 16.2985 11.1928 16.2105 11.2426L4.10281 18.2518C4.05822 18.2774 4.00759 18.2908 3.95614 18.2904C3.87768 18.2914 3.80207 18.2609 3.74622 18.2058C3.69038 18.1507 3.65894 18.0755 3.65895 17.997V4.00193C3.6589 3.89592 3.71461 3.7977 3.80561 3.74333C3.85208 3.71887 3.90364 3.70565 3.95614 3.70474C4.00792 3.70569 4.05852 3.72034 4.10281 3.74719L9.64913 6.9507L13.3081 4.83947L5.92842 0.593858C4.70754 -0.108301 3.20542 -0.108443 1.9844 0.593483C0.763379 1.29541 0.00760094 2.59355 0 4.00193V17.997C0.00132864 19.4093 0.755469 20.7139 1.97872 21.4198C3.20196 22.1257 4.70877 22.126 5.93228 21.4205L18.0516 14.423C19.2735 13.7157 20.0264 12.4113 20.0277 10.9995Z" fill="url(#paint0_linear_5416_47972)"/>
    <path d="M24.648 0.579368C23.4236 -0.12574 21.9163 -0.12574 20.6919 0.579368L8.5726 7.57305C7.34923 8.27993 6.5957 9.58558 6.5957 10.9985C6.5957 12.4114 7.34923 13.7171 8.5726 14.4239L9.64944 15.0492L13.3084 12.938L10.4214 11.2436C10.3298 11.1917 10.2736 11.0941 10.2747 10.9888C10.2772 10.8866 10.3327 10.793 10.4214 10.7418L22.5214 3.74428C22.5666 3.72027 22.6168 3.70706 22.668 3.70568C22.7211 3.70614 22.7731 3.7208 22.8186 3.74814C22.9101 3.80007 22.9663 3.89761 22.9652 4.00288V17.998C22.9652 18.0764 22.9338 18.1516 22.8779 18.2068C22.8221 18.2619 22.7465 18.2923 22.668 18.2913C22.6166 18.2917 22.5659 18.2784 22.5214 18.2527L16.9828 15.0492L13.3238 17.1604L20.7035 21.406C21.9243 22.1082 23.4265 22.1083 24.6475 21.4064C25.8685 20.7045 26.6243 19.4063 26.6319 17.998V4.00288C26.629 2.58944 25.8729 1.28471 24.648 0.579368Z" fill="url(#paint1_linear_5416_47972)"/>
    <defs>
        <linearGradient id="paint0_linear_5416_47972" x1="10.0159" y1="0.0496328" x2="10.0159" y2="21.9492" gradientUnits="userSpaceOnUse">
            <stop stop-color="#FF1DD9"/>
            <stop offset="1" stop-color="#FF4284"/>
        </linearGradient>
        <linearGradient id="paint1_linear_5416_47972" x1="16.6122" y1="0.0505371" x2="16.6122" y2="21.9503" gradientUnits="userSpaceOnUse">
            <stop stop-color="#0150F7"/>
            <stop offset="1" stop-color="#4BAEFF"/>
        </linearGradient>
    </defs>
    <script xmlns=""/></svg>
